<svg width="120" height="120" viewBox="0 0 120 120" fill="none" xmlns="http://www.w3.org/2000/svg">
<g clip-path="url(#clip0_7731_81882)">
<rect width="120" height="120" rx="27" fill="#1E1E1E"/>
<path fill-rule="evenodd" clip-rule="evenodd" d="M91.4062 0C108.75 0 120 11.25 120 28.5938V91.4062C120 108.75 108.75 120 91.4062 120H28.5938C11.25 120 0 108.75 0 91.4062V28.5938C0 11.25 11.25 0 28.5938 0H91.4062Z" fill="url(#paint0_linear_7731_81882)"/>
<path d="M62.1512 27.9301C65.5712 28.4938 68.4979 25.5667 67.9288 22.1517C67.5874 20.081 65.918 18.4114 63.8476 18.0699C60.4277 17.5062 57.5064 20.4333 58.07 23.8483C58.4115 25.919 60.0808 27.5886 62.1512 27.9301Z" fill="white"/>
<path d="M82.1393 47.707C82.111 47.6788 82.0883 47.6448 82.06 47.6166L69.9366 35.5105C68.6399 33.916 66.7089 33 64.6365 33C60.8709 33 57.8075 36.059 57.8075 39.7626C57.7962 39.9605 57.7962 40.1697 57.8075 40.3677L57.6716 73.9603C57.4734 74.6219 56.8335 75.0912 56.1087 75.0912C55.5878 75.0912 55.3952 74.9781 55.2027 74.7519L53.2378 72.7842L51.3692 71.0596L42.9094 62.612C42.9094 62.612 42.8471 62.5667 42.8188 62.5385C42.3092 61.9787 41.5844 61.6168 40.769 61.6168C39.2401 61.6168 38 62.8551 38 64.3818C38 65.1564 38.3171 65.8519 38.8267 66.3495C38.872 66.4117 38.9173 66.4739 38.974 66.5305L51.7373 79.2754C51.9128 79.4507 52.1506 79.609 52.3318 79.7165C53.504 80.559 54.88 81 56.3296 81C60.0951 81 63.1586 77.941 63.1586 74.2261C63.1586 74.1695 63.1586 74.113 63.1586 74.079L63.2718 46.8419H63.2831L63.3737 40.526C63.3737 39.6552 64.0589 38.971 64.9309 38.971C65.3216 38.971 65.752 39.152 66.0294 39.429L78.1359 51.5181C78.1755 51.5577 78.2208 51.5859 78.2661 51.6199C78.7701 52.1231 79.4609 52.4341 80.231 52.4341C81.7599 52.4341 83 51.1958 83 49.6691C83 48.8888 82.6716 48.182 82.1506 47.6788L82.1393 47.707Z" fill="white"/>
<path d="M85.416 91.8335C85.416 91.5574 85.6399 91.3335 85.916 91.3335H87.3376C87.5406 91.3335 87.7234 91.4562 87.8003 91.6439L90.6732 98.6561C90.6869 98.6895 90.7194 98.7113 90.7555 98.7113C90.7916 98.7113 90.8241 98.6895 90.8378 98.6561L93.7107 91.6439C93.7876 91.4562 93.9704 91.3335 94.1734 91.3335H95.595C95.8711 91.3335 96.095 91.5574 96.095 91.8335V101.015C96.095 101.291 95.8711 101.515 95.595 101.515H94.8251C94.549 101.515 94.3251 101.291 94.3251 101.015V94.5767C94.3251 94.5455 94.2998 94.5203 94.2687 94.5203C94.2457 94.5203 94.225 94.5342 94.2164 94.5556L91.5431 101.173C91.4667 101.362 91.2833 101.485 91.0795 101.485H90.4318C90.2279 101.485 90.0443 101.362 89.9681 101.172L87.2946 94.5407C87.286 94.5193 87.2653 94.5054 87.2423 94.5054C87.2111 94.5054 87.1859 94.5306 87.1859 94.5618V101.015C87.1859 101.291 86.962 101.515 86.6859 101.515H85.916C85.6399 101.515 85.416 101.291 85.416 101.015V91.8335Z" fill="white"/>
<path d="M80.2333 91.8335C80.2333 91.5574 80.4571 91.3335 80.7333 91.3335H81.5777C81.8539 91.3335 82.0777 91.5574 82.0777 91.8335V97.9855C82.0777 98.7147 81.9054 99.356 81.5607 99.9095C81.2193 100.463 80.7387 100.896 80.1189 101.207C79.4991 101.515 78.7749 101.669 77.9463 101.669C77.1144 101.669 76.3886 101.515 75.7688 101.207C75.149 100.896 74.6684 100.463 74.327 99.9095C73.9856 99.356 73.8149 98.7147 73.8149 97.9855V91.8335C73.8149 91.5574 74.0388 91.3335 74.3149 91.3335H75.1594C75.4355 91.3335 75.6594 91.5574 75.6594 91.8335V97.8314C75.6594 98.2556 75.7522 98.6334 75.9378 98.9649C76.1267 99.2963 76.3919 99.5565 76.7333 99.7454C77.0746 99.931 77.479 100.024 77.9463 100.024C78.4137 100.024 78.818 99.931 79.1594 99.7454C79.5041 99.5565 79.7692 99.2963 79.9549 98.9649C80.1405 98.6334 80.2333 98.2556 80.2333 97.8314V91.8335Z" fill="white"/>
<path d="M69.9846 91.3335C70.2607 91.3335 70.4846 91.5574 70.4846 91.8335V101.015C70.4846 101.291 70.2607 101.515 69.9846 101.515H69.1401C68.864 101.515 68.6401 101.291 68.6401 101.015V91.8335C68.6401 91.5574 68.864 91.3335 69.1401 91.3335H69.9846Z" fill="white"/>
<path d="M54.6191 91.8335C54.6191 91.5574 54.843 91.3335 55.1191 91.3335H56.5408C56.7437 91.3335 56.9265 91.4562 57.0034 91.6439L59.8764 98.6561C59.89 98.6895 59.9225 98.7113 59.9586 98.7113C59.9947 98.7113 60.0272 98.6895 60.0409 98.6561L62.9138 91.6439C62.9908 91.4562 63.1736 91.3335 63.3765 91.3335H64.7981C65.0743 91.3335 65.2981 91.5574 65.2981 91.8335V101.015C65.2981 101.291 65.0743 101.515 64.7981 101.515H64.0282C63.7521 101.515 63.5282 101.291 63.5282 101.015V94.5767C63.5282 94.5455 63.503 94.5203 63.4718 94.5203C63.4488 94.5203 63.4281 94.5342 63.4195 94.5556L60.7462 101.173C60.6698 101.362 60.4864 101.485 60.2826 101.485H59.6349C59.431 101.485 59.2475 101.362 59.1712 101.172L56.4977 94.5407C56.4891 94.5193 56.4684 94.5054 56.4454 94.5054C56.4143 94.5054 56.389 94.5306 56.389 94.5618V101.015C56.389 101.291 56.1652 101.515 55.889 101.515H55.1191C54.843 101.515 54.6191 101.291 54.6191 101.015V91.8335Z" fill="white"/>
<path d="M45.2817 101.515C45.0056 101.515 44.7817 101.291 44.7817 101.015V91.8335C44.7817 91.5574 45.0056 91.3335 45.2817 91.3335H50.9039C51.18 91.3335 51.4039 91.5574 51.4039 91.8335V92.3797C51.4039 92.6558 51.18 92.8797 50.9039 92.8797H46.8262C46.7157 92.8797 46.6262 92.9692 46.6262 93.0797V95.4439C46.6262 95.5543 46.7157 95.6439 46.8262 95.6439H50.5609C50.837 95.6439 51.0609 95.8677 51.0609 96.1439V96.69C51.0609 96.9662 50.837 97.19 50.5609 97.19H46.8262C46.7157 97.19 46.6262 97.2796 46.6262 97.39V99.7692C46.6262 99.8796 46.7157 99.9692 46.8262 99.9692H50.9437C51.2198 99.9692 51.4437 100.193 51.4437 100.469V101.015C51.4437 101.291 51.2198 101.515 50.9437 101.515H45.2817Z" fill="white"/>
<path d="M34.8433 101.515C34.5671 101.515 34.3433 101.291 34.3433 101.015V91.8335C34.3433 91.5574 34.5671 91.3335 34.8433 91.3335H38.1614C38.9436 91.3335 39.5999 91.4694 40.1302 91.7412C40.6638 92.0129 41.0665 92.3941 41.3383 92.8846C41.6134 93.3718 41.7509 93.9403 41.7509 94.5899C41.7509 95.2428 41.6117 95.8096 41.3333 96.2902C41.0582 96.7674 40.6522 97.137 40.1153 97.3988C39.5783 97.6574 38.9188 97.7866 38.1366 97.7866H35.9171C35.641 97.7866 35.4171 97.5628 35.4171 97.2866V96.7554C35.4171 96.4792 35.641 96.2554 35.9171 96.2554H37.888C38.3454 96.2554 38.7199 96.1924 39.0116 96.0665C39.3033 95.9372 39.5187 95.7499 39.6579 95.5047C39.8004 95.2561 39.8717 94.9512 39.8717 94.5899C39.8717 94.2286 39.8004 93.9204 39.6579 93.6652C39.5154 93.4066 39.2983 93.2111 39.0066 93.0785C38.7149 92.9426 38.3388 92.8747 37.8781 92.8747H36.3877C36.2773 92.8747 36.1877 92.9642 36.1877 93.0747V101.015C36.1877 101.291 35.9639 101.515 35.6877 101.515H34.8433ZM39.3066 96.9017C39.4895 96.9017 39.6577 97.0015 39.7454 97.162L41.7197 100.776C41.9017 101.109 41.6606 101.515 41.2809 101.515H40.3647C40.1805 101.515 40.0112 101.414 39.9241 101.252L37.9849 97.6381C37.8062 97.305 38.0475 96.9017 38.4255 96.9017H39.3066Z" fill="white"/>
<path d="M24.5 101.515C24.2239 101.515 24 101.291 24 101.015V91.8335C24 91.5574 24.2239 91.3335 24.5 91.3335H27.8182C28.6004 91.3335 29.2566 91.4793 29.7869 91.771C30.3205 92.0627 30.7232 92.4637 30.995 92.9741C31.2701 93.4812 31.4077 94.0579 31.4077 94.7042C31.4077 95.3572 31.2701 95.9372 30.995 96.4443C30.7199 96.9514 30.3139 97.3508 29.777 97.6424C29.2401 97.9308 28.5788 98.075 27.7933 98.075H25.7628C25.4866 98.075 25.2628 97.8511 25.2628 97.575V97.0586C25.2628 96.7825 25.4866 96.5586 25.7628 96.5586H27.5447C28.0021 96.5586 28.3767 96.4791 28.6683 96.32C28.96 96.1609 29.1754 95.9422 29.3146 95.6638C29.4571 95.3853 29.5284 95.0655 29.5284 94.7042C29.5284 94.343 29.4571 94.0248 29.3146 93.7497C29.1754 93.4746 28.9583 93.2608 28.6634 93.1084C28.3717 92.9526 27.9955 92.8747 27.5348 92.8747H26.0445C25.934 92.8747 25.8445 92.9642 25.8445 93.0747V101.015C25.8445 101.291 25.6206 101.515 25.3445 101.515H24.5Z" fill="white"/>
</g>
<defs>
<linearGradient id="paint0_linear_7731_81882" x1="60" y1="0" x2="60" y2="120" gradientUnits="userSpaceOnUse">
<stop stop-color="#FE5E49"/>
<stop offset="1" stop-color="#F73422"/>
</linearGradient>
<clipPath id="clip0_7731_81882">
<rect width="120" height="120" rx="27" fill="white"/>
</clipPath>
</defs>
</svg>
